<svg xmlns="http://www.w3.org/2000/svg" viewBox="0 0 500 500"><g id="freepik--Character--inject-4"><path d="M290.93,126.21c13.24-.74,21,12.21,13.32,20.45s-2.22,12.29.87,13.79c-3.38,9.74-30.44,11.08-36.18,2.86-4.82-6.9,14-15.78,9.46-23.31S280.63,126,290.93,126.21Z" style="fill:#263238"></path><path d="M210.9,184.63l1.86,2.09a3.25,3.25,0,0,0,2.78,1.08l4.89-.52a6.09,6.09,0,0,0,4.66-3.07l.59-1.06c-2.84-3.68-8.63-5.57-8.63-5.57l-1.59-.72a2.71,2.71,0,0,0-3.64,1.27l-1.47,3.13A3.12,3.12,0,0,0,210.9,184.63Z" style="fill:#ffb573"></path><path d="M273.44,184.15c-1.07,1.2-2,2.24-3.07,3.33s-2.05,2.12-3.09,3.17c-2.09,2.09-4.2,4.16-6.4,6.16a93.73,93.73,0,0,1-14.55,11.25l-.05,0a4,4,0,0,1-.4.22,10.14,10.14,0,0,1-4.68,1,12.36,12.36,0,0,1-3.57-.69,19.49,19.49,0,0,1-4.67-2.43,45,45,0,0,1-6.35-5.51c-1.86-1.88-3.57-3.8-5.2-5.76s-3.19-3.87-4.79-6l9.9-7.05c1.24,1.74,2.69,3.65,4.12,5.38s3,3.43,4.51,5a33.12,33.12,0,0,0,4.64,3.9,7.79,7.79,0,0,0,1.74.9c.15.05.18,0,0,0a2.37,2.37,0,0,0-1.17.26l-.45.24a62.3,62.3,0,0,0,6.12-4.6c2-1.7,4-3.55,5.89-5.47s3.79-3.91,5.61-5.95c.9-1,1.8-2.06,2.68-3.11s1.77-2.13,2.53-3.1Z" style="fill:#027E97"></path><path d="M273.44,184.15c-1.07,1.2-2,2.24-3.07,3.33s-2.05,2.12-3.09,3.17c-2.09,2.09-4.2,4.16-6.4,6.16a93.73,93.73,0,0,1-14.55,11.25l-.05,0a4,4,0,0,1-.4.22,10.14,10.14,0,0,1-4.68,1,12.36,12.36,0,0,1-3.57-.69,19.49,19.49,0,0,1-4.67-2.43,45,45,0,0,1-6.35-5.51c-1.86-1.88-3.57-3.8-5.2-5.76s-3.19-3.87-4.79-6l9.9-7.05c1.24,1.74,2.69,3.65,4.12,5.38s3,3.43,4.51,5a33.12,33.12,0,0,0,4.64,3.9,7.79,7.79,0,0,0,1.74.9c.15.05.18,0,0,0a2.37,2.37,0,0,0-1.17.26l-.45.24a62.3,62.3,0,0,0,6.12-4.6c2-1.7,4-3.55,5.89-5.47s3.79-3.91,5.61-5.95c.9-1,1.8-2.06,2.68-3.11s1.77-2.13,2.53-3.1Z" style="fill:#fff;opacity:0.7000000000000001"></path><path d="M297.14,416.23c7,0,6.46-.11,10.37-.24,3.35-.12,4.14.3,6.82.24,2.25-.05,2.22-2.2,1.6-4.67-.32-1.24-.81-2.76-1.24-4.77H304.13a10.86,10.86,0,0,1-8.35,5.32C292,412.61,294.37,416.23,297.14,416.23Z" style="fill:#027E97"></path><path d="M244.73,416.23c6.83,0,9.13-.45,13-.58,3.3-.12,3.81.58,7.15.58,2.21,0,2.63-2.49,1.91-4.36a28.7,28.7,0,0,1-1.91-5.08h-9.43c-1.84,3-6.57,5.2-11.77,5.57C239.93,412.63,242,416.23,244.73,416.23Z" style="fill:#027E97"></path><path d="M261.43,230s-3.66,49.16-2.21,80.38c-1.56,29.31-3.8,96.43-3.8,96.43.16,1.5,8.05.9,9.43,0,0,0,17-48.89,12.7-96.43C296.23,260.78,294.14,230,294.14,230Z" style="fill:#263238"></path><path d="M271.24,230s14.51,55.49,20.27,82.74c6.06,28.61,14.24,75.06,12.62,94.07,1.6.95,7.33,1,10.56,0,0,0,12.47-65.26-3.26-92.81,5.5-67.79-12.47-84-12.47-84Z" style="fill:#263238"></path><path d="M303.44,402.83a28.59,28.59,0,0,1-.47,3.91.78.78,0,0,0,.65,1c3.85.62,9.47-.28,11.25-.6a.82.82,0,0,0,.67-.67l.68-3.65a.79.79,0,0,0-.8-.94l-11.17.21A.83.83,0,0,0,303.44,402.83Z" style="fill:#263238"></path><path d="M303.44,402.83a28.59,28.59,0,0,1-.47,3.91.78.78,0,0,0,.65,1c3.85.62,9.47-.28,11.25-.6a.82.82,0,0,0,.67-.67l.68-3.65a.79.79,0,0,0-.8-.94l-11.17.21A.83.83,0,0,0,303.44,402.83Z" style="fill:#fff;opacity:0.1"></path><path d="M254.54,402.66c-.08,1-.22,2.83-.38,4.17a.81.81,0,0,0,.7.9,56,56,0,0,0,10.41-.12A.81.81,0,0,0,266,407l.87-3.65a.82.82,0,0,0-.76-1l-10.71-.42A.79.79,0,0,0,254.54,402.66Z" style="fill:#263238"></path><path d="M254.54,402.66c-.08,1-.22,2.83-.38,4.17a.81.81,0,0,0,.7.9,56,56,0,0,0,10.41-.12A.81.81,0,0,0,266,407l.87-3.65a.82.82,0,0,0-.76-1l-10.71-.42A.79.79,0,0,0,254.54,402.66Z" style="fill:#fff;opacity:0.1"></path><path d="M259.31,185.79a167.31,167.31,0,0,0,.24,17.17c.29,7.46.8,14.79,1.88,27H299c-.75-10.58.48-22.62,7.22-46.41a8.76,8.76,0,0,0-7.49-11.38c-1.49-.15-3.06-.27-4.68-.35a118.08,118.08,0,0,0-17,0c-1.86.17-3.77.4-5.61.65A14.12,14.12,0,0,0,259.31,185.79Z" style="fill:#fff"></path><path d="M292.81,152.65c-1.48,5.48-3.3,15.53.26,19.19,0,0-5.19-.78-16.22,6-3.19-4.58-.82-6-.82-6,6.22-1.46,6.4-6,5.66-10.26Z" style="fill:#ffb573"></path><path d="M279.17,176.5c2.07,1.38,3,6.74,3,6.74s13.72-5.19,13.22-11.25a35.16,35.16,0,0,1-3.19-2S281.29,174.41,279.17,176.5Z" style="fill:#027E97"></path><path d="M275.72,175.92a23.5,23.5,0,0,0-2.27,6c-5.51-4.55.9-10.07.9-10.07a4.65,4.65,0,0,1,3.28-.47A3.88,3.88,0,0,0,275.72,175.92Z" style="fill:#027E97"></path><path d="M288.28,156.29l-6.59,5.29a17.36,17.36,0,0,1,.3,3c2.36-.34,5.76-2.9,6.19-5.34A8.29,8.29,0,0,0,288.28,156.29Z" style="opacity:0.2"></path><path d="M297.49,141.65c-1.66,8.85-2.18,12.62-7.23,16.87-7.6,6.39-18,3-19-6-.89-8.12,2-21.24,11.1-24.16A11.53,11.53,0,0,1,297.49,141.65Z" style="fill:#ffb573"></path><path d="M291.09,130.15c-2.69,7.16,3.07,11.42,4.35,17.61C302.11,143.33,302.58,124.81,291.09,130.15Z" style="fill:#263238"></path><path d="M292.44,142.12a1.58,1.58,0,0,1-.71-.17A1.53,1.53,0,0,1,291,141a1.57,1.57,0,0,1,.09-1.2,1.59,1.59,0,0,1,.91-.78l4.68-1.52a1.57,1.57,0,1,1,1,3h0L292.92,142A1.61,1.61,0,0,1,292.44,142.12Zm4.68-4.16a1,1,0,0,0-.33.06l-4.68,1.52a1.07,1.07,0,0,0-.69,1.34,1.08,1.08,0,0,0,.53.62,1.07,1.07,0,0,0,.82.07l4.68-1.53a1.06,1.06,0,0,0,.68-1.34,1,1,0,0,0-.53-.62A1,1,0,0,0,297.12,138Zm.41,2.32Z" style="fill:#fff"></path><path d="M283.47,143.12c-.11.75-.58,1.33-1.06,1.29s-.78-.67-.68-1.42.59-1.33,1.07-1.29S283.58,142.37,283.47,143.12Z" style="fill:#263238"></path><path d="M274.43,142.59c-.11.75-.59,1.33-1.07,1.29s-.78-.67-.67-1.42.58-1.33,1.06-1.29S274.53,141.84,274.43,142.59Z" style="fill:#263238"></path><path d="M274,141.22l-1.69-.64S273,142.05,274,141.22Z" style="fill:#263238"></path><path d="M276.77,144a22.25,22.25,0,0,1-3.31,4.59,3,3,0,0,0,2.55.69Z" style="fill:#ed893e"></path><path d="M279.83,152.36a7.37,7.37,0,0,1-1.25,0,.2.2,0,0,1-.18-.24.24.24,0,0,1,.25-.2,6.28,6.28,0,0,0,5.07-2,.21.21,0,0,1,.31,0,.22.22,0,0,1,0,.31A6.66,6.66,0,0,1,279.83,152.36Z" style="fill:#263238"></path><path d="M298.49,149.17a6.17,6.17,0,0,1-4.21,2.7c-2.12.24-2.66-2.23-1.63-4.46.93-2,3.14-4.55,5.06-3.75S299.82,147.27,298.49,149.17Z" style="fill:#ffb573"></path><path d="M297.39,152.23a2.16,2.16,0,1,1-2.16-2.16A2.16,2.16,0,0,1,297.39,152.23Z" style="fill:#fff"></path><path d="M286.26,138.77a.41.41,0,0,1-.3-.14,3.27,3.27,0,0,0-2.87-1.1.41.41,0,0,1-.49-.34.48.48,0,0,1,.38-.52,4,4,0,0,1,3.64,1.35.44.44,0,0,1-.05.62A.53.53,0,0,1,286.26,138.77Z" style="fill:#263238"></path><path d="M271.89,138.17a.43.43,0,0,1-.31-.08.44.44,0,0,1-.06-.62,4.66,4.66,0,0,1,3.62-1.92.4.4,0,0,1,.38.46.47.47,0,0,1-.48.42,3.73,3.73,0,0,0-2.85,1.56A.5.5,0,0,1,271.89,138.17Z" style="fill:#263238"></path><path d="M283,141.76l-1.69-.65S282,142.58,283,141.76Z" style="fill:#263238"></path><path d="M295.82,170c-4.17,2.86-9.75,33.62-11.35,79.38a600,600,0,0,0,2.83,82.86s18.27-20.08,29.68-26c.22-42.7-8.87-71.87-7.82-82.65s7-40.59,2.43-46.19S295.82,170,295.82,170Z" style="fill:#027E97"></path><path d="M295.82,170c-4.17,2.86-9.75,33.62-11.35,79.38a600,600,0,0,0,2.83,82.86s18.27-20.08,29.68-26c.22-42.7-8.87-71.87-7.82-82.65s7-40.59,2.43-46.19S295.82,170,295.82,170Z" style="fill:#fff;opacity:0.8"></path><path d="M274.68,171.53c-4.86,7.21-15.61,97-5.47,160.67-8-4.44-13.79-16.7-13.79-16.7s-.79-55.42,3-85.52C257.64,194.64,253.44,170.7,274.68,171.53Z" style="fill:#027E97"></path><path d="M274.68,171.53c-4.86,7.21-15.61,97-5.47,160.67-8-4.44-13.79-16.7-13.79-16.7s-.79-55.42,3-85.52C257.64,194.64,253.44,170.7,274.68,171.53Z" style="fill:#fff;opacity:0.8"></path><path d="M289.09,230.41a162.59,162.59,0,0,1-6.83-14.78c-3.08-7.78-5.54-17-5.54-17s-23.32-.88-27.66,1.75c2.54,9.89,13.56,33.75,13.56,33.75S280.25,233.82,289.09,230.41Z" style="fill:#e0e0e0"></path><path d="M265.12,235.68l21.2-.64c2.13-.06,3.23-1.62,2.43-3.46l-13.37-30.81a6,6,0,0,0-5.33-3.23l-21.2.64c-2.13.06-3.22,1.62-2.42,3.46l13.37,30.81A6,6,0,0,0,265.12,235.68Z" style="fill:#027E97"></path><path d="M264,236.93a6.28,6.28,0,0,1-5.42-3.38L245.2,202.74a2.66,2.66,0,0,1,.08-2.55,3,3,0,0,1,2.57-1.26l21.19-.64a6.28,6.28,0,0,1,5.57,3.38L288,232.48a2.71,2.71,0,0,1-.08,2.56,3,3,0,0,1-2.57,1.25l-21.2.64H264Zm.13-.5v0l21.2-.64a2.55,2.55,0,0,0,2.15-1,2.19,2.19,0,0,0,0-2.09l-13.37-30.81a5.68,5.68,0,0,0-5.09-3.08l-21.2.64a2.57,2.57,0,0,0-2.16,1,2.2,2.2,0,0,0,0,2.09L259,233.35A5.71,5.71,0,0,0,264.12,236.43Z" style="fill:#fff"></path><path d="M276.56,212.63l2.51-1.23a3.28,3.28,0,0,1,3,.06l4.32,2.35a6,6,0,0,1,3.13,4.61l.15,1.21c-4,2.32-10.1,1.86-10.1,1.86l-1.75.06a2.71,2.71,0,0,1-2.88-2.57l-.16-3.45A3.1,3.1,0,0,1,276.56,212.63Z" style="fill:#ffb573"></path><path d="M303.77,189.09c-.84,13.74-.89,26.32,2.78,28.44C310.85,213.3,310.54,207.38,303.77,189.09Z" style="fill:#027E97;opacity:0.2"></path><path d="M313,179.39c.54,1.54,1,2.91,1.41,4.36s.86,2.86,1.26,4.3c.8,2.88,1.57,5.77,2.22,8.71a85.09,85.09,0,0,1,2.38,18.55,3.39,3.39,0,0,1,0,.45v.06a9.25,9.25,0,0,1-2.16,5.12,10.78,10.78,0,0,1-3.31,2.57,18,18,0,0,1-5.25,1.66,45.7,45.7,0,0,1-8.47.5c-2.67,0-5.25-.21-7.81-.45s-5.05-.51-7.72-.91l2-12c2.16.36,4.56.69,6.84.92s4.6.35,6.82.37a33.92,33.92,0,0,0,6.15-.45,6.85,6.85,0,0,0,1.72-.53c.07,0-.08,0-.42.36a3.29,3.29,0,0,0-.76,1.79l0,.52a57.19,57.19,0,0,0-.83-7.57c-.45-2.6-1.09-5.24-1.79-7.86s-1.52-5.25-2.41-7.85c-.45-1.3-.91-2.6-1.4-3.88s-1-2.61-1.46-3.75Z" style="fill:#027E97"></path><path d="M313,179.39c.54,1.54,1,2.91,1.41,4.36s.86,2.86,1.26,4.3c.8,2.88,1.57,5.77,2.22,8.71a85.09,85.09,0,0,1,2.38,18.55,3.39,3.39,0,0,1,0,.45v.06a9.25,9.25,0,0,1-2.16,5.12,10.78,10.78,0,0,1-3.31,2.57,18,18,0,0,1-5.25,1.66,45.7,45.7,0,0,1-8.47.5c-2.67,0-5.25-.21-7.81-.45s-5.05-.51-7.72-.91l2-12c2.16.36,4.56.69,6.84.92s4.6.35,6.82.37a33.92,33.92,0,0,0,6.15-.45,6.85,6.85,0,0,0,1.72-.53c.07,0-.08,0-.42.36a3.29,3.29,0,0,0-.76,1.79l0,.52a57.19,57.19,0,0,0-.83-7.57c-.45-2.6-1.09-5.24-1.79-7.86s-1.52-5.25-2.41-7.85c-.45-1.3-.91-2.6-1.4-3.88s-1-2.61-1.46-3.75Z" style="fill:#fff;opacity:0.8"></path><path d="M293.79,132.71c-4.51,4.51-24.74-2.8-23.94,4.7-3.12-7,1.79-14.53,14.26-14.53C299.37,122.88,296.53,130,293.79,132.71Z" style="fill:#263238"></path><path d="M239.72,155.76l-1-.3a23.8,23.8,0,0,0,1.12-6.38l1,0A25.35,25.35,0,0,1,239.72,155.76Z" style="fill:#027E97"></path><path d="M239.36,143a24.26,24.26,0,0,0-10.6-15.42l.55-.84a25.26,25.26,0,0,1,11,16.05Z" style="fill:#027E97"></path><path d="M215.42,173.54a25.45,25.45,0,0,1-21.32-39.32l.83.54a24.46,24.46,0,0,0,20.49,37.78Z" style="fill:#027E97"></path><circle cx="215.44" cy="148.09" r="22.1" transform="translate(-3.86 5.78) rotate(-1.52)" style="fill:#027E97"></circle><path d="M212.42,161.51l-.29-.19c2.58-6.93,8.81-11.49,12.5-17.7,1.19-2,.39-4.73-1.34-6.27l.18-.38a.77.77,0,0,0-.36-1h0a.77.77,0,0,0-1,.37l-.1.2c-1.91-.76-3.91.17-5.07,2.09-3.69,6.21-9.92,10.77-12.5,17.7h0a.74.74,0,0,0-1,.22.73.73,0,0,0,.22,1l8,5.21a.74.74,0,1,0,.81-1.23Z" style="fill:#fff;opacity:0.5"></path><path d="M209.84,151a.5.5,0,0,1-.3-.11.49.49,0,0,1-.09-.7c1-1.23,2-2.47,3-3.67a.5.5,0,1,1,.75.66c-1,1.18-2.06,2.41-3,3.63A.53.53,0,0,1,209.84,151Z" style="fill:#fff"></path><path d="M206.08,157.43a.33.33,0,0,1-.17,0,.49.49,0,0,1-.3-.64,21.28,21.28,0,0,1,2.06-4.06.5.5,0,0,1,.85.54,20.21,20.21,0,0,0-2,3.87A.52.52,0,0,1,206.08,157.43Z" style="fill:#fff"></path><path d="M217.88,150a.51.51,0,0,1-.32-.12.49.49,0,0,1-.06-.7c.7-.81,1.36-1.59,2-2.37a.49.49,0,0,1,.7-.07.5.5,0,0,1,.07.7c-.65.79-1.32,1.58-2,2.38A.5.5,0,0,1,217.88,150Z" style="fill:#fff"></path><path d="M221.69,145.34a.52.52,0,0,1-.29-.09.51.51,0,0,1-.11-.7c.52-.73,1-1.42,1.39-2.11a3,3,0,0,0-.9-3.39.5.5,0,1,1,.66-.74,3.93,3.93,0,0,1,1.1,4.65c-.43.71-.9,1.42-1.44,2.18A.51.51,0,0,1,221.69,145.34Z" style="fill:#fff"></path></g></svg>